<svg width="48" height="48" viewBox="0 0 48 48" fill="none" xmlns="http://www.w3.org/2000/svg">
<path d="M39.4008 8.59006L37.3708 18.4801C37.3008 18.8701 36.8308 19.0101 36.5708 18.7301L34.8108 16.9301C34.6208 16.7401 34.3208 16.7401 34.1308 16.9301L28.4008 22.7901C27.7908 23.4201 27.3208 24.1801 27.0508 25.0101C26.8308 25.6401 26.7208 26.3001 26.7208 26.9801L26.7508 40.5101C26.7508 40.7401 26.6008 40.9301 26.3908 40.9801H23.7108H21.0208C20.8108 40.9301 20.6608 40.7401 20.6608 40.5101L20.6908 26.9801C20.6908 26.3101 20.5808 25.6401 20.3608 25.0201C20.0808 24.1901 19.6208 23.4201 19.0008 22.7901L13.2808 16.9301C13.0908 16.7401 12.7908 16.7401 12.6008 16.9301L10.8408 18.7301C10.5708 19.0101 10.1108 18.8701 10.0308 18.4801L8.01083 8.59006C7.94083 8.26006 8.22083 7.96006 8.54083 8.00006L18.7908 9.48006C19.1808 9.53006 19.3508 10.0201 19.0708 10.3101L17.3608 12.0501C17.1808 12.2501 17.1808 12.5601 17.3608 12.7501L23.7108 19.2401L30.0508 12.7501C30.2308 12.5601 30.2308 12.2501 30.0508 12.0501L28.3408 10.3101C28.0608 10.0201 28.2208 9.53006 28.6208 9.48006L38.8608 8.00006C39.1908 7.96006 39.4708 8.26006 39.4008 8.59006Z" fill="#0000FF"/>
</svg>
