<svg width="48" height="48" viewBox="0 0 48 48" fill="none" xmlns="http://www.w3.org/2000/svg">
<path d="M12.5 34H18.5C18.7761 34 19 33.7761 19 33.5V16.5C19 16.2239 19.2239 16 19.5 16H25.5C25.7761 16 26 16.2239 26 16.5V19.0786C26 19.4754 26.4399 19.7141 26.7725 19.4979L35.4001 13.8899C35.6914 13.7006 35.7056 13.2792 35.4276 13.0707L26.8 6.59999C26.4704 6.35278 26 6.58797 26 6.99999V9.49999C26 9.77613 25.7761 9.99999 25.5 9.99999H16C13.7909 9.99999 12 11.7909 12 14V33.5C12 33.7761 12.2239 34 12.5 34Z" fill="#0000FF"/>
<path fill-rule="evenodd" clip-rule="evenodd" d="M12 39C12 40.6568 13.3431 42 15 42C16.6569 42 18 40.6568 18 39C18 37.3431 16.6569 36 15 36C13.3431 36 12 37.3431 12 39ZM13.5 39C13.5 39.8284 14.1716 40.5 15 40.5C15.8284 40.5 16.5 39.8284 16.5 39C16.5 38.1716 15.8284 37.5 15 37.5C14.1716 37.5 13.5 38.1716 13.5 39Z" fill="#0000FF"/>
</svg>
