<svg width="48" height="48" viewBox="0 0 48 48" fill="none" xmlns="http://www.w3.org/2000/svg">
<path d="M8.5 42H14.5C14.7761 42 15 41.7761 15 41.5V24.5C15 24.2239 15.2239 24 15.5 24H21.5C21.7761 24 22 24.2239 22 24.5V27.0786C22 27.4754 22.4399 27.7141 22.7725 27.4979L31.4001 21.8899C31.6914 21.7006 31.7056 21.2792 31.4276 21.0707L22.8 14.6C22.4704 14.3528 22 14.588 22 15V17.5C22 17.7761 21.7761 18 21.5 18H12C9.79086 18 8 19.7909 8 22V41.5C8 41.7761 8.22386 42 8.5 42Z" fill="#0000FF"/>
<path fill-rule="evenodd" clip-rule="evenodd" d="M34 21C34 22.6568 35.3431 24 37 24C38.6569 24 40 22.6568 40 21C40 19.3431 38.6569 18 37 18C35.3431 18 34 19.3431 34 21ZM35.5 21C35.5 21.8284 36.1716 22.5 37 22.5C37.8284 22.5 38.5 21.8284 38.5 21C38.5 20.1716 37.8284 19.5 37 19.5C36.1716 19.5 35.5 20.1716 35.5 21Z" fill="#0000FF"/>
</svg>
