<svg width="48" height="48" viewBox="0 0 48 48" fill="none" xmlns="http://www.w3.org/2000/svg">
<path d="M19.215 38.9992L13.9917 38.9992C13.7473 38.9992 13.5539 38.7664 13.5539 38.4933L13.5743 18.925L19.6732 18.925L19.6528 38.4933C19.6528 38.7664 19.4593 38.9992 19.215 38.9992Z" fill="#808080"/>
<path d="M38.0005 26.3314L38.0005 32.4022C38.0005 32.6855 37.7765 32.9081 37.4914 32.9081L17.6368 32.9081C15.3866 32.9081 13.5641 31.097 13.5641 28.8609L13.5641 19.2487C13.5641 18.9654 13.3401 18.7428 13.055 18.7428L10.5096 18.7428C10.0921 18.7428 9.84774 18.2673 10.1023 17.9334L16.6899 9.20151C16.9037 8.91821 17.3314 8.93844 17.5248 9.23187L23.2368 17.9637C23.4608 18.2976 23.2165 18.7428 22.8092 18.7428L20.1823 18.7428C19.8972 18.7428 19.6732 18.9654 19.6732 19.2487L19.6732 25.3196C19.6732 25.6029 19.8972 25.8255 20.1823 25.8255L37.4914 25.8255C37.7765 25.8255 38.0005 26.0481 38.0005 26.3314Z" fill="#0000FF"/>
</svg>
