<svg width="48" height="48" viewBox="0 0 48 48" fill="none" xmlns="http://www.w3.org/2000/svg">
<path d="M9.00084 23.2145V17.9912C9.00084 17.7469 9.23355 17.5534 9.50674 17.5534L29.075 17.5738V23.6727L9.50674 23.6523C9.23355 23.6523 9.00084 23.4589 9.00084 23.2145Z" fill="#808080"/>
<path d="M21.6686 42H15.5978C15.3145 42 15.0919 41.776 15.0919 41.4909V21.6363C15.0919 19.3862 16.903 17.5636 19.1391 17.5636H28.7513C29.0346 17.5636 29.2572 17.3396 29.2572 17.0545V14.5091C29.2572 14.0916 29.7327 13.8473 30.0666 14.1018L38.7985 20.6894C39.0818 20.9033 39.0616 21.3309 38.7681 21.5243L30.0363 27.2363C29.7024 27.4603 29.2572 27.216 29.2572 26.8087V24.1818C29.2572 23.8967 29.0346 23.6727 28.7513 23.6727H22.6804C22.3971 23.6727 22.1745 23.8967 22.1745 24.1818V41.4909C22.1745 41.776 21.9519 42 21.6686 42Z" fill="#0000FF"/>
</svg>
