<svg width="48" height="48" viewBox="0 0 48 48" fill="none" xmlns="http://www.w3.org/2000/svg">
<path d="M38.9991 16.36V41.46C38.9991 41.74 38.7791 41.96 38.4991 41.96H31.4991C31.2191 41.96 30.9991 41.74 30.9991 41.46V16.98C30.9991 16.98 31.0091 16.87 31.0091 16.81C31.0091 13.98 28.6791 11.69 25.8191 11.69C22.9591 11.69 20.8191 13.8 20.6491 16.47C20.6291 16.6 20.6191 16.74 20.6191 16.88V28.48C20.6891 28.76 20.8891 28.96 21.1191 28.96H23.6391C24.1491 28.96 24.3691 29.8 23.9791 30.23L20.6191 33.82L16.8991 37.79C16.7291 37.97 16.4491 37.97 16.2791 37.79L12.6191 33.88L9.19905 30.23C8.80905 29.8 9.02905 28.96 9.53905 28.96H12.0491C12.3491 28.96 12.5891 28.64 12.5891 28.25V15.96H12.6291C12.6591 15.29 12.7491 14.63 12.8991 14C12.8991 13.99 12.9091 13.97 12.9091 13.96C13.9991 9.38 18.1191 6 23.0191 6H29.5291C34.0391 6.4 37.7291 9.69 38.7291 14C38.9091 14.76 38.9991 15.55 38.9991 16.36Z" fill="#0000FF"/>
</svg>
