<svg width="48" height="48" viewBox="0 0 48 48" fill="none" xmlns="http://www.w3.org/2000/svg">
<path d="M19.4401 17.2018L25.3402 23.2427C26.4563 24.3854 27.0815 25.9365 27.0775 27.5525L27.0427 41.4926C27.042 41.7731 27.2643 42.0007 27.5383 42L33.4747 41.9845C33.7467 41.9838 33.967 41.7582 33.9677 41.4797L34 28.5547C34.008 25.3225 32.7576 22.2204 30.5254 19.935L23.648 12.8935C23.4549 12.6959 23.4549 12.3755 23.648 12.1778L25.4025 10.3814C25.6909 10.0861 25.5256 9.5804 25.1217 9.52236L14.5633 8.00506C14.2241 7.95633 13.9405 8.26692 14.0108 8.6101L16.0978 18.8009C16.1784 19.1944 16.6534 19.3392 16.9311 19.0549L18.741 17.2018C18.9341 17.0042 19.247 17.0042 19.4401 17.2018Z" fill="#0000FF"/>
</svg>
