<svg width="48" height="48" viewBox="0 0 48 48" fill="none" xmlns="http://www.w3.org/2000/svg">
<path d="M28.5599 17.2018L22.6598 23.2427C21.5437 24.3854 20.9185 25.9365 20.9225 27.5525L20.9573 41.4926C20.958 41.7731 20.7357 42.0007 20.4617 42L14.5253 41.9845C14.2533 41.9838 14.033 41.7582 14.0323 41.4797L14 28.5547C13.992 25.3225 15.2424 22.2204 17.4746 19.935L24.352 12.8935C24.5451 12.6959 24.5451 12.3755 24.352 12.1778L22.5975 10.3814C22.3091 10.0861 22.4744 9.5804 22.8783 9.52236L33.4367 8.00506C33.7759 7.95633 34.0595 8.26692 33.9892 8.6101L31.9022 18.8009C31.8216 19.1944 31.3466 19.3392 31.0689 19.0549L29.259 17.2018C29.0659 17.0042 28.753 17.0042 28.5599 17.2018Z" fill="#0000FF"/>
</svg>
