<svg width="48" height="48" viewBox="0 0 48 48" fill="none" xmlns="http://www.w3.org/2000/svg">
<path d="M38.9992 23.2145V17.9912C38.9992 17.7469 38.7664 17.5534 38.4933 17.5534L18.925 17.5738V23.6727L38.4933 23.6523C38.7664 23.6523 38.9992 23.4589 38.9992 23.2145Z" fill="#808080"/>
<path d="M26.3314 42H32.4022C32.6855 42 32.9081 41.776 32.9081 41.4909V21.6363C32.9081 19.3862 31.097 17.5636 28.8609 17.5636H19.2487C18.9654 17.5636 18.7428 17.3396 18.7428 17.0545V14.5091C18.7428 14.0916 18.2673 13.8473 17.9334 14.1018L9.20151 20.6894C8.91821 20.9033 8.93844 21.3309 9.23187 21.5243L17.9637 27.2363C18.2976 27.4603 18.7428 27.216 18.7428 26.8087V24.1818C18.7428 23.8967 18.9654 23.6727 19.2487 23.6727H25.3196C25.6029 23.6727 25.8255 23.8967 25.8255 24.1818V41.4909C25.8255 41.776 26.0481 42 26.3314 42Z" fill="#0000FF"/>
</svg>
