<svg width="48" height="48" viewBox="0 0 48 48" fill="none" xmlns="http://www.w3.org/2000/svg">
<path d="M18.3491 40.9799C18.1391 40.9299 17.9891 40.7399 17.9891 40.5099L18.0191 26.98C18.0191 26.2999 17.9091 25.64 17.6891 25.01C17.4191 24.18 16.9491 23.4199 16.3391 22.7899L10.9991 17.3299L15.1291 13.1999L21.0291 19.2399L21.3691 19.5799C22.8491 21.09 23.8791 22.98 24.3791 25.02C24.1591 25.64 24.0491 26.31 24.0491 26.98L24.0791 40.5099C24.0791 40.7399 23.9291 40.9299 23.7191 40.9799L21.0291 40.9799L18.3491 40.9799Z" fill="#808080"/>
<path d="M21.0292 40.9901L18.3492 40.9901C18.1392 40.9301 17.9891 40.7399 17.9891 40.5099L18.0191 26.98C18.0191 26.2999 17.9091 25.64 17.6891 25.01C18.1891 22.97 19.2292 21.0901 20.6992 19.5801L21.0291 19.2399L27.3792 12.7501C27.5592 12.5601 27.5592 12.2501 27.3792 12.0501L25.6692 10.3101C25.3892 10.0201 25.5592 9.53005 25.9492 9.48005L36.1992 8.00006C36.5192 7.96006 36.7992 8.26006 36.7292 8.59006L34.7092 18.4801C34.6292 18.8701 34.1692 19.0101 33.8992 18.7301L32.1392 16.9301C31.9492 16.7401 31.6492 16.7401 31.4592 16.9301L25.7392 22.7901C25.1192 23.4201 24.6591 24.19 24.3791 25.02C24.1591 25.64 24.0491 26.31 24.0491 26.98L24.0791 40.5099C24.0791 40.7399 23.9291 40.9299 23.7191 40.9799L21.0291 40.9799L21.0292 40.9901Z" fill="#0000FF"/>
</svg>
