<svg width="48" height="48" viewBox="0 0 48 48" fill="none" xmlns="http://www.w3.org/2000/svg">
<path d="M18.6092 40.9799C18.3992 40.93 18.2492 40.7399 18.2492 40.5099L18.2792 26.98C18.2792 26.3 18.1692 25.64 17.9492 25.01C17.6792 24.18 17.2092 23.42 16.5992 22.79L11.2592 17.33L15.3892 13.2L21.2892 19.24L21.6292 19.58C23.1092 21.09 24.1392 22.98 24.6392 25.02C24.4192 25.64 24.3092 26.31 24.3092 26.98L24.3392 40.5099C24.3392 40.7399 24.1892 40.93 23.9792 40.9799H21.2892H18.6092Z" fill="#808080"/>
<path d="M21.2892 40.9901H18.6092C18.3992 40.9301 18.2492 40.7399 18.2492 40.5099L18.2792 26.98C18.2792 26.3 18.1692 25.64 17.9492 25.01C18.4492 22.97 19.4892 21.0901 20.9592 19.5801L21.2892 19.24L27.6392 12.7501C27.8192 12.5601 27.8192 12.2501 27.6392 12.0501L25.9292 10.3101C25.6492 10.0201 25.8192 9.53006 26.2092 9.48006L36.4592 8.00006C36.7792 7.96006 37.0592 8.26006 36.9892 8.59006L34.9692 18.4801C34.8892 18.8701 34.4292 19.0101 34.1592 18.7301L32.3992 16.9301C32.2092 16.7401 31.9092 16.7401 31.7192 16.9301L25.9992 22.7901C25.3792 23.4201 24.9192 24.19 24.6392 25.02C24.4192 25.64 24.3092 26.31 24.3092 26.98L24.3392 40.5099C24.3392 40.7399 24.1892 40.93 23.9792 40.9799H21.2892L21.2892 40.9901Z" fill="#0000FF"/>
</svg>
