<svg width="48" height="48" viewBox="0 0 48 48" fill="none" xmlns="http://www.w3.org/2000/svg">
<path d="M29.39 40.9799C29.6 40.93 29.75 40.7399 29.75 40.5099L29.72 26.98C29.72 26.3 29.83 25.64 30.05 25.01C30.32 24.18 30.79 23.42 31.4 22.79L36.74 17.33L32.61 13.2L26.71 19.24L26.37 19.58C24.89 21.09 23.86 22.98 23.36 25.02C23.58 25.64 23.69 26.31 23.69 26.98L23.66 40.5099C23.66 40.7399 23.81 40.93 24.02 40.9799H26.71H29.39Z" fill="#808080"/>
<path d="M26.71 40.9901H29.39C29.6 40.9301 29.75 40.7399 29.75 40.5099L29.72 26.98C29.72 26.3 29.83 25.64 30.05 25.01C29.55 22.97 28.51 21.0901 27.04 19.5801L26.71 19.24L20.36 12.7501C20.18 12.5601 20.18 12.2501 20.36 12.0501L22.07 10.3101C22.35 10.0201 22.18 9.53006 21.79 9.48006L11.54 8.00006C11.22 7.96006 10.94 8.26006 11.01 8.59006L13.03 18.4801C13.11 18.8701 13.57 19.0101 13.84 18.7301L15.6 16.9301C15.79 16.7401 16.09 16.7401 16.28 16.9301L22 22.7901C22.62 23.4201 23.08 24.19 23.36 25.02C23.58 25.64 23.69 26.31 23.69 26.98L23.66 40.5099C23.66 40.7399 23.81 40.93 24.02 40.9799H26.71L26.71 40.9901Z" fill="#0000FF"/>
</svg>
