<svg width="48" height="48" viewBox="0 0 48 48" fill="none" xmlns="http://www.w3.org/2000/svg">
<path d="M12.0401 40C11.5022 40 10.9845 39.8905 10.5988 39.7013C10.2131 39.512 10 39.2432 10 38.9743V10.0357C10 9.75683 10.2131 9.49791 10.5988 9.29875C10.9845 9.10954 11.5022 9 12.0401 9C12.5781 9 13.0957 9.10954 13.4814 9.29875C13.8671 9.48795 14.0803 9.75683 14.0803 10.0257V38.9544C14.0803 39.2332 13.8671 39.4921 13.4814 39.6813C13.0957 39.8705 12.5781 39.9801 12.0401 39.9801V40ZM32.7663 16.4288L37.6281 11.2207C38.4198 10.3643 37.8108 9 36.6334 9H17.7241C16.973 9 16.3742 9.59749 16.3742 10.3244V24.3257C16.3742 25.0626 16.9831 25.6502 17.7241 25.6502H36.6436C37.8209 25.6502 38.4401 24.2759 37.6382 23.4295L32.7764 18.2213C32.2994 17.7135 32.2994 16.9367 32.7764 16.4288H32.7663Z" fill="#0000FF"/>
</svg>
