<svg width="48" height="48" viewBox="0 0 48 48" fill="none" xmlns="http://www.w3.org/2000/svg">
<path d="M8.58579 10.9916C7.80474 11.7726 7.80474 13.0389 8.58579 13.82L18.7621 23.9963L8.58579 34.1727C7.80474 34.9538 7.80474 36.2201 8.58579 37.0011L10.838 39.2533C11.619 40.0344 12.8854 40.0344 13.6664 39.2533L23.8428 29.077L34.0191 39.2533C34.8001 40.0343 36.0665 40.0343 36.8475 39.2533L39.0997 37.0011C39.8808 36.22 39.8808 34.9537 39.0997 34.1726L28.9234 23.9963L39.0997 13.82C39.8808 13.039 39.8808 11.7727 39.0997 10.9916L36.8475 8.73941C36.0665 7.95836 34.8001 7.95836 34.0191 8.73941L23.8428 18.9157L13.6664 8.73935C12.8854 7.9583 11.619 7.9583 10.838 8.73935L8.58579 10.9916Z" fill="#0000FF"/>
</svg>
