<svg width="48" height="48" viewBox="0 0 48 48" fill="none" xmlns="http://www.w3.org/2000/svg">
<path d="M28.7841 38.9992L34.0074 38.9992C34.2518 38.9992 34.4452 38.7664 34.4452 38.4933L34.4249 18.925L28.326 18.925L28.3463 38.4933C28.3463 38.7664 28.5398 38.9992 28.7841 38.9992Z" fill="#808080"/>
<path d="M9.99865 26.3314L9.99865 32.4022C9.99865 32.6855 10.2226 32.9081 10.5077 32.9081L30.3623 32.9081C32.6125 32.9081 34.435 31.097 34.435 28.8609L34.435 19.2487C34.435 18.9654 34.659 18.7428 34.9441 18.7428L37.4896 18.7428C37.907 18.7428 38.1514 18.2673 37.8968 17.9334L31.3092 9.20151C31.0954 8.91821 30.6677 8.93844 30.4743 9.23187L24.7623 17.9637C24.5383 18.2976 24.7826 18.7428 25.1899 18.7428L27.8168 18.7428C28.1019 18.7428 28.3259 18.9654 28.3259 19.2487L28.3259 25.3196C28.3259 25.6029 28.1019 25.8255 27.8168 25.8255L10.5077 25.8255C10.2226 25.8255 9.99865 26.0481 9.99865 26.3314Z" fill="#0000FF"/>
</svg>
