<svg width="48" height="48" viewBox="0 0 48 48" fill="none" xmlns="http://www.w3.org/2000/svg">
<path d="M38.9992 23.2146V17.9913C38.9992 17.7469 38.7664 17.5535 38.4933 17.5535L18.925 17.5738V23.6727L38.4933 23.6524C38.7664 23.6524 38.9992 23.4589 38.9992 23.2146Z" fill="#808080"/>
<path d="M26.3314 42H32.4022C32.6855 42 32.9081 41.776 32.9081 41.4909V21.6364C32.9081 19.3862 31.097 17.5637 28.8609 17.5637H19.2487C18.9654 17.5637 18.7428 17.3397 18.7428 17.0546V14.5091C18.7428 14.0917 18.2673 13.8473 17.9334 14.1019L9.20151 20.6895C8.91821 20.9033 8.93844 21.3309 9.23187 21.5244L17.9637 27.2364C18.2976 27.4604 18.7428 27.216 18.7428 26.8088V24.1819C18.7428 23.8968 18.9654 23.6728 19.2487 23.6728H25.3196C25.6029 23.6728 25.8255 23.8968 25.8255 24.1819V41.4909C25.8255 41.776 26.0481 42 26.3314 42Z" fill="#0000FF"/>
</svg>
