<svg width="48" height="48" viewBox="0 0 48 48" fill="none" xmlns="http://www.w3.org/2000/svg">
<path d="M39.5 42H33.5C33.2239 42 33 41.7761 33 41.5V24.5C33 24.2239 32.7761 24 32.5 24H26.5C26.2239 24 26 24.2239 26 24.5V27.0786C26 27.4754 25.5601 27.7141 25.2275 27.4979L16.5999 21.8899C16.3086 21.7006 16.2944 21.2792 16.5724 21.0707L25.2 14.6C25.5296 14.3528 26 14.588 26 15V17.5C26 17.7761 26.2239 18 26.5 18H36C38.2091 18 40 19.7909 40 22V41.5C40 41.7761 39.7761 42 39.5 42Z" fill="#0000FF"/>
<path fill-rule="evenodd" clip-rule="evenodd" d="M14 21C14 22.6568 12.6569 24 11 24C9.34315 24 8 22.6568 8 21C8 19.3431 9.34315 18 11 18C12.6569 18 14 19.3431 14 21ZM12.5 21C12.5 21.8284 11.8284 22.5 11 22.5C10.1716 22.5 9.5 21.8284 9.5 21C9.5 20.1716 10.1716 19.5 11 19.5C11.8284 19.5 12.5 20.1716 12.5 21Z" fill="#0000FF"/>
</svg>
