<svg width="48" height="48" viewBox="0 0 48 48" fill="none" xmlns="http://www.w3.org/2000/svg">
<path fill-rule="evenodd" clip-rule="evenodd" d="M27.0824 15C27.0824 16.6569 25.7393 18 24.0824 18C22.4255 18 21.0824 16.6569 21.0824 15C21.0824 13.3431 22.4255 12 24.0824 12C25.7393 12 27.0824 13.3431 27.0824 15ZM25.5824 15C25.5824 15.8284 24.9108 16.5 24.0824 16.5C23.254 16.5 22.5824 15.8284 22.5824 15C22.5824 14.1716 23.254 13.5 24.0824 13.5C24.9108 13.5 25.5824 14.1716 25.5824 15Z" fill="#0000FF"/>
<path d="M20.349 25.9425V41.5294C20.349 41.7893 20.5729 42 20.849 42H27.3157C27.5918 42 27.8157 41.7893 27.8157 41.5294V25.9425C27.8157 25.6826 28.0395 25.4719 28.3157 25.4719H30.6637C31.1356 25.4719 31.3448 24.9132 30.9772 24.6347L24.3958 19.6491C24.2128 19.5104 23.9519 19.5104 23.7688 19.6491L17.1875 24.6347C16.8199 24.9132 17.0291 25.4719 17.501 25.4719H19.849C20.1251 25.4719 20.349 25.6826 20.349 25.9425Z" fill="#0000FF"/>
</svg>
