<svg width="48" height="48" viewBox="0 0 48 48" fill="none" xmlns="http://www.w3.org/2000/svg">
<path d="M18.5 42.0001H12.5C12.2239 42.0001 12 41.7762 12 41.5001V22.0001C12 19.7909 13.7909 18.0001 16 18.0001H25.5C25.7761 18.0001 26 17.7762 26 17.5001V15.0001C26 14.588 26.4704 14.3528 26.8 14.6001L35.4276 21.0708C35.7056 21.2792 35.6914 21.7006 35.4001 21.89L26.7725 27.4979C26.4399 27.7141 26 27.4754 26 27.0787V24.5001C26 24.2239 25.7761 24.0001 25.5 24.0001H19.5C19.2239 24.0001 19 24.2239 19 24.5001V41.5001C19 41.7762 18.7761 42.0001 18.5 42.0001Z" fill="#0000FF"/>
</svg>
