<svg width="48" height="48" viewBox="0 0 48 48" fill="none" xmlns="http://www.w3.org/2000/svg">
<path fill-rule="evenodd" clip-rule="evenodd" d="M27.0824 39C27.0824 40.6569 25.7393 42 24.0824 42C22.4255 42 21.0824 40.6569 21.0824 39C21.0824 37.3431 22.4255 36 24.0824 36C25.7393 36 27.0824 37.3431 27.0824 39ZM25.5824 39C25.5824 39.8284 24.9108 40.5 24.0824 40.5C23.254 40.5 22.5824 39.8284 22.5824 39C22.5824 38.1716 23.254 37.5 24.0824 37.5C24.9108 37.5 25.5824 38.1716 25.5824 39Z" fill="#0000FF"/>
<path d="M20.349 17.9425V33.5294C20.349 33.7893 20.5729 34 20.849 34H27.3157C27.5918 34 27.8157 33.7893 27.8157 33.5294V17.9425C27.8157 17.6826 28.0395 17.4719 28.3157 17.4719H30.6637C31.1356 17.4719 31.3448 16.9132 30.9772 16.6347L24.3958 11.6491C24.2128 11.5104 23.9519 11.5104 23.7688 11.6491L17.1875 16.6347C16.8199 16.9132 17.0291 17.4719 17.501 17.4719H19.849C20.1251 17.4719 20.349 17.6826 20.349 17.9425Z" fill="#0000FF"/>
</svg>
