<svg width="48" height="48" viewBox="0 0 48 48" fill="none" xmlns="http://www.w3.org/2000/svg">
<path d="M18.5 42H12.5C12.2239 42 12 41.7761 12 41.5V22C12 19.7909 13.7909 18 16 18H25.5C25.7761 18 26 17.7761 26 17.5V15C26 14.588 26.4704 14.3528 26.8 14.6L35.4276 21.0707C35.7056 21.2792 35.6914 21.7006 35.4001 21.8899L26.7725 27.4979C26.4399 27.7141 26 27.4754 26 27.0786V24.5C26 24.2239 25.7761 24 25.5 24H19.5C19.2239 24 19 24.2239 19 24.5V41.5C19 41.7761 18.7761 42 18.5 42Z" fill="#0000FF"/>
</svg>
