<svg width="48" height="48" viewBox="0 0 48 48" fill="none" xmlns="http://www.w3.org/2000/svg">
<path d="M29.1276 42H35.1276C35.4038 42 35.6276 41.7761 35.6276 41.5V22C35.6276 19.7909 33.8368 18 31.6276 18H22.1276C21.8515 18 21.6276 17.7761 21.6276 17.5V15C21.6276 14.588 21.1572 14.3528 20.8276 14.6L12.2 21.0707C11.9221 21.2792 11.9362 21.7006 12.2275 21.8899L20.8551 27.4979C21.1877 27.7141 21.6276 27.4754 21.6276 27.0786V24.5C21.6276 24.2239 21.8515 24 22.1276 24H28.1276C28.4038 24 28.6276 24.2239 28.6276 24.5V41.5C28.6276 41.7761 28.8515 42 29.1276 42Z" fill="#0000FF"/>
</svg>
