<svg width="48" height="48" viewBox="0 0 48 48" fill="none" xmlns="http://www.w3.org/2000/svg">
<path d="M29.1276 42.0001H35.1276C35.4038 42.0001 35.6276 41.7762 35.6276 41.5001V22.0001C35.6276 19.7909 33.8368 18.0001 31.6276 18.0001H22.1276C21.8515 18.0001 21.6276 17.7762 21.6276 17.5001V15.0001C21.6276 14.588 21.1572 14.3528 20.8276 14.6001L12.2 21.0708C11.9221 21.2792 11.9362 21.7006 12.2275 21.89L20.8551 27.4979C21.1877 27.7141 21.6276 27.4754 21.6276 27.0787V24.5001C21.6276 24.2239 21.8515 24.0001 22.1276 24.0001H28.1276C28.4038 24.0001 28.6276 24.2239 28.6276 24.5001V41.5001C28.6276 41.7762 28.8515 42.0001 29.1276 42.0001Z" fill="#0000FF"/>
</svg>
