<svg width="48" height="48" viewBox="0 0 48 48" fill="none" xmlns="http://www.w3.org/2000/svg">
<path d="M35.1276 34H29.1276C28.8515 34 28.6276 33.7761 28.6276 33.5V16.5C28.6276 16.2239 28.4038 16 28.1276 16H22.1276C21.8515 16 21.6276 16.2239 21.6276 16.5V19.0786C21.6276 19.4754 21.1877 19.7141 20.8551 19.4979L12.2275 13.8899C11.9362 13.7006 11.9221 13.2792 12.2 13.0707L20.8276 6.59999C21.1572 6.35278 21.6276 6.58797 21.6276 6.99999V9.49999C21.6276 9.77613 21.8515 9.99999 22.1276 9.99999H31.6276C33.8368 9.99999 35.6276 11.7909 35.6276 14V33.5C35.6276 33.7761 35.4038 34 35.1276 34Z" fill="#0000FF"/>
<path fill-rule="evenodd" clip-rule="evenodd" d="M35.6276 39C35.6276 40.6568 34.2845 42 32.6276 42C30.9708 42 29.6276 40.6568 29.6276 39C29.6276 37.3431 30.9708 36 32.6276 36C34.2845 36 35.6276 37.3431 35.6276 39ZM34.1276 39C34.1276 39.8284 33.456 40.5 32.6276 40.5C31.7992 40.5 31.1276 39.8284 31.1276 39C31.1276 38.1716 31.7992 37.5 32.6276 37.5C33.456 37.5 34.1276 38.1716 34.1276 39Z" fill="#0000FF"/>
</svg>
