<svg width="48" height="48" viewBox="0 0 48 48" fill="none" xmlns="http://www.w3.org/2000/svg">
<path d="M20.7042 41.2162V15.8747C20.7042 15.5986 20.4804 15.3747 20.2042 15.3747H17.501C17.0777 15.3747 16.8459 14.8817 17.1159 14.5558L24.0525 6.18106C24.2525 5.93965 24.6227 5.93965 24.8226 6.18106L31.7593 14.5558C32.0292 14.8817 31.7974 15.3747 31.3742 15.3747H28.6709C28.3948 15.3747 28.1709 15.5986 28.1709 15.8747V41.2162C28.1709 41.4923 27.9471 41.7162 27.6709 41.7162H21.2042C20.9281 41.7162 20.7042 41.4923 20.7042 41.2162Z" fill="#0000FF"/>
<path d="M8.13 14.43L13.88 20.3C16.05 22.52 17.26 25.53 17.25 28.67L17.22 41.21C17.22 41.49 17.01 41.7 16.74 41.7L10.98 41.72C10.71 41.72 10.5 41.5 10.5 41.23L10.53 27.7C10.53 26.13 9.93 24.62 8.85 23.51L4 18.56L8.13 14.43Z" fill="#808080"/>
<path d="M39.96 14.43L34.21 20.3C32.04 22.52 30.83 25.53 30.84 28.67L30.87 41.21C30.87 41.49 31.08 41.7 31.35 41.7L37.11 41.72C37.38 41.72 37.59 41.5 37.59 41.23L37.56 27.7C37.56 26.13 38.16 24.62 39.24 23.51L44.09 18.56L39.96 14.43Z" fill="#808080"/>
</svg>
